<?xml version="1.0" standalone="no"?>
<!DOCTYPE svg PUBLIC "-//W3C//DTD SVG 20010904//EN"
 "http://www.w3.org/TR/2001/REC-SVG-20010904/DTD/svg10.dtd">
<svg version="1.0" xmlns="http://www.w3.org/2000/svg"
 width="7973.000000pt" height="7974.000000pt" viewBox="0 0 7973.000000 7974.000000"
 preserveAspectRatio="xMidYMid meet">

<g transform="translate(0.000000,7974.000000) scale(0.100000,-0.100000)"
fill="#000000" stroke="none">
<path d="M39250 71754 c-1374 -35 -2485 -121 -3700 -285 -8125 -1100 -15502
-5299 -20646 -11754 -1715 -2152 -3159 -4546 -4259 -7060 -1531 -3499 -2417
-7238 -2619 -11055 -35 -644 -40 -895 -41 -1720 0 -859 7 -1121 46 -1820 227
-4094 1239 -8087 2985 -11788 150 -317 507 -1031 664 -1327 1120 -2109 2517
-4147 4061 -5924 107 -123 202 -234 212 -247 10 -13 23 -24 28 -24 5 0 51 31
101 69 489 361 1079 662 1692 860 363 117 603 172 1196 271 4610 771 9464
2286 12181 3801 1079 601 1812 1196 2156 1750 132 212 355 727 491 1134 343
1024 523 2186 592 3825 9 209 29 1065 30 1242 l0 58 163 -107 c1971 -1288
3940 -2279 5092 -2563 272 -67 380 -83 560 -84 162 0 234 9 445 55 1118 245
3022 1182 5045 2483 127 82 245 159 263 173 l32 24 0 -68 c1 -173 21 -993 30
-1213 82 -1950 323 -3253 821 -4426 90 -211 227 -484 297 -589 343 -515 993
-1045 1967 -1607 2660 -1535 7648 -3107 12340 -3889 695 -116 1039 -203 1500
-379 343 -132 778 -347 1016 -504 l27 -17 139 163 c1906 2234 3527 4783 4751
7473 1660 3649 2613 7592 2807 11610 46 966 48 2110 5 3060 -232 5059 -1652
9950 -4162 14338 -2607 4558 -6334 8434 -10791 11223 -3441 2154 -7238 3622
-11222 4339 -1498 269 -2922 421 -4560 485 -250 10 -1499 20 -1735 14z m5610
-14504 c486 -28 897 -135 1303 -338 1159 -579 1998 -1911 2522 -4002 116 -463
192 -841 305 -1516 104 -619 153 -849 275 -1279 222 -784 533 -1572 957 -2419
l139 -278 -11 -97 c-150 -1291 -693 -3325 -1295 -4851 -322 -816 -589 -1349
-929 -1855 -201 -298 -304 -490 -399 -745 -120 -320 -174 -620 -184 -1010 -10
-398 18 -658 147 -1380 61 -344 86 -516 101 -695 34 -431 -76 -752 -346 -1003
-207 -193 -541 -352 -895 -427 -228 -48 -248 -42 -316 93 -76 149 -123 370
-229 1082 -36 239 -79 514 -96 610 -150 861 -329 1299 -609 1490 -213 145
-538 234 -1030 282 -209 20 -1070 17 -1370 -5 -311 -23 -612 -51 -900 -84
-378 -43 -576 -34 -970 43 -208 40 -397 86 -614 148 -87 25 -168 46 -180 46
-12 0 -75 -16 -141 -36 -174 -51 -538 -139 -698 -169 -362 -66 -563 -73 -922
-32 -621 71 -1008 97 -1520 104 -447 6 -670 -3 -940 -37 -545 -70 -866 -210
-1032 -452 -211 -309 -335 -746 -478 -1678 -30 -201 -69 -455 -86 -565 -87
-567 -169 -824 -278 -866 -42 -17 -270 30 -476 98 -488 160 -809 440 -928 808
-47 145 -52 188 -52 415 1 248 9 312 110 883 118 671 146 930 140 1287 -13
699 -185 1218 -604 1823 -474 684 -982 1868 -1461 3407 -321 1032 -621 2320
-720 3090 l-13 95 38 115 c191 592 318 1428 420 2760 8 107 17 224 20 260 3
36 21 299 40 585 38 553 61 793 100 1020 145 856 454 1642 930 2360 243 368
456 627 795 966 135 135 296 289 359 342 765 651 1630 1095 2455 1262 240 48
418 67 641 67 300 1 341 -7 1040 -192 1046 -277 1699 -373 2545 -373 1084 0
2145 173 3597 588 583 167 919 231 1324 254 198 12 228 12 419 1z m-16032
-9085 c35 -8 97 -29 138 -46 l74 -31 0 -46 c0 -50 31 -336 55 -517 8 -60 44
-324 79 -585 77 -562 93 -708 101 -895 85 -2042 268 -4626 452 -6378 20 -191
33 -350 30 -353 -18 -18 -340 97 -469 169 -401 220 -761 804 -1058 1712 -667
2048 -848 5268 -361 6452 89 215 199 354 337 426 88 45 229 93 314 106 80 12
224 6 308 -14z m23278 15 c119 -15 187 -35 299 -89 157 -75 233 -156 330 -351
146 -291 243 -756 297 -1425 18 -219 18 -1329 0 -1595 -66 -985 -184 -1828
-368 -2630 -304 -1320 -742 -2238 -1220 -2556 -186 -124 -530 -244 -699 -244
l-46 0 6 33 c8 51 81 803 120 1237 127 1444 240 3212 310 4830 9 201 20 460
25 575 12 279 27 378 171 1140 78 413 135 746 145 839 l6 62 57 36 c82 52 147
83 229 108 127 39 210 46 338 30z m-11758 -10104 c158 -40 311 -64 572 -91 58
-6 390 -23 595 -30 722 -26 1026 -53 1349 -121 614 -130 1064 -406 1380 -847
290 -406 476 -959 565 -1685 97 -783 14 -1433 -249 -1947 -272 -533 -732 -917
-1432 -1196 -240 -96 -865 -286 -1018 -310 -211 -33 -419 38 -575 197 -217
220 -381 669 -435 1194 -6 58 -13 129 -16 158 l-5 52 -843 0 -842 0 -12 -139
c-32 -373 -124 -736 -250 -986 -64 -129 -114 -199 -207 -291 -161 -161 -364
-223 -587 -180 -209 40 -841 241 -1088 345 -983 417 -1499 1096 -1605 2113
-17 169 -20 572 -5 748 47 552 162 1062 322 1440 131 309 282 536 498 750 374
371 852 570 1566 649 230 26 425 38 919 56 432 16 600 27 795 51 132 16 399
66 440 83 38 15 63 13 168 -13z"/>
<path d="M34310 50139 c-726 -62 -1366 -283 -1938 -668 -367 -247 -736 -616
-907 -909 -41 -70 -65 -136 -52 -148 2 -3 105 29 228 70 687 230 1438 331
2384 321 945 -11 1906 -134 2802 -361 384 -97 520 -98 708 -5 197 97 342 307
416 598 45 180 66 150 -203 285 -270 136 -353 174 -578 270 -675 287 -1317
462 -1960 534 -170 19 -737 27 -900 13z"/>
<path d="M45430 50143 c-824 -60 -1618 -283 -2520 -708 -152 -71 -443 -218
-459 -232 -11 -8 22 -165 55 -262 82 -248 211 -413 389 -502 187 -93 325 -92
705 5 387 98 926 203 1270 246 47 6 153 19 235 30 457 58 893 84 1405 84 928
0 1611 -97 2294 -325 115 -38 211 -68 213 -65 13 13 -11 78 -55 152 -106 177
-298 404 -493 580 -647 585 -1451 922 -2373 994 -117 9 -556 11 -666 3z"/>
<path d="M34685 47390 c-469 -31 -962 -165 -1469 -399 -129 -60 -306 -186
-541 -385 -172 -147 -435 -390 -428 -397 5 -4 138 -43 297 -88 l289 -80 101
87 c281 243 607 429 960 548 55 19 103 34 107 34 4 0 -8 -24 -28 -52 -122
-183 -183 -385 -183 -613 0 -305 106 -562 319 -776 78 -79 91 -88 141 -99 93
-19 299 -48 420 -59 151 -14 533 -14 701 0 l134 11 55 43 c30 23 91 80 136
127 346 361 398 920 126 1345 -29 44 -59 87 -67 93 -25 21 -17 32 18 25 245
-53 642 -214 922 -374 127 -73 373 -233 458 -298 31 -24 57 -41 57 -38 0 4
-34 57 -76 119 -333 484 -764 846 -1239 1040 -364 148 -787 213 -1210 186z"/>
<path d="M45361 47390 c-525 -36 -970 -202 -1401 -524 -122 -91 -422 -391
-526 -526 -84 -108 -204 -282 -204 -294 0 -4 26 13 58 37 84 65 330 225 457
298 233 133 539 265 771 332 142 41 184 51 184 42 0 -4 -15 -25 -33 -48 -49
-61 -103 -155 -138 -239 -142 -345 -103 -735 104 -1043 47 -70 180 -210 252
-265 50 -38 51 -38 184 -49 169 -14 551 -14 701 0 124 11 331 41 420 60 47 10
65 21 123 78 166 159 279 369 322 594 20 103 19 302 -1 407 -26 138 -89 291
-167 408 -20 28 -32 52 -27 52 4 0 59 -18 121 -39 338 -117 641 -289 917 -520
l130 -110 289 81 c158 44 291 83 296 87 13 13 -440 415 -643 570 -208 159
-293 206 -609 332 -527 211 -1095 312 -1580 279z"/>
<path d="M38865 40331 c-132 -22 -269 -86 -375 -176 -71 -61 -73 -69 -38 -140
51 -101 166 -180 325 -222 104 -27 139 -28 578 -22 138 2 159 -1 266 -29 133
-34 267 -85 387 -147 45 -23 82 -41 82 -39 0 17 -192 238 -300 344 -280 277
-541 419 -799 434 -42 3 -98 1 -126 -3z"/>
<path d="M41400 40244 c-197 -42 -420 -177 -625 -378 -63 -61 -95 -99 -90
-107 5 -7 4 -10 -3 -5 -10 6 -81 -74 -153 -173 l-32 -43 40 21 c80 41 244 101
341 125 190 49 364 55 499 20 72 -19 318 -18 415 0 155 30 261 91 314 182 27
46 38 111 19 116 -5 2 -23 18 -39 36 -38 43 -176 134 -253 166 -134 56 -292
71 -433 40z"/>
<path d="M39215 37799 c-27 -5 -124 -34 -215 -64 -320 -105 -1048 -312 -1980
-565 -267 -72 -492 -134 -500 -137 -21 -8 37 -27 235 -78 591 -152 1370 -235
2495 -265 468 -13 2232 -6 2565 9 490 23 893 54 1205 92 85 10 175 21 200 24
113 13 430 69 570 100 211 48 421 110 395 118 -11 3 -245 67 -520 142 -1080
294 -1771 493 -2016 580 -219 78 -485 74 -815 -10 -151 -39 -295 -91 -405
-146 l-76 -38 -91 45 c-116 57 -355 136 -514 170 -99 21 -158 26 -303 29 -99
2 -202 0 -230 -6z"/>
</g>
</svg>
